<svg width="18" height="16" viewBox="0 0 18 16" fill="none" xmlns="http://www.w3.org/2000/svg">
<path d="M7.64326 0.136719H10.1861L17.0562 15.9178H14.1565L12.5728 12.1349H5.80533C5.62264 12.1349 5.44399 12.1889 5.29162 12.29C5.13925 12.3912 5.01989 12.535 4.94837 12.7038L3.58285 15.9186H0.772812L7.64326 0.136719ZM11.2652 8.98857L8.87002 3.42635L6.19359 9.69376H10.8032C10.8864 9.69374 10.9684 9.67297 11.0417 9.63333C11.115 9.59368 11.1773 9.53639 11.2231 9.4666C11.2689 9.39682 11.2968 9.31671 11.3041 9.23347C11.3115 9.15023 11.2981 9.06646 11.2652 8.98968V8.98857Z" fill="black"/>
</svg>
