<svg width="30" height="30" viewBox="0 0 30 30" fill="none" xmlns="http://www.w3.org/2000/svg">
<path d="M14.9916 29.9832C23.2712 29.9832 29.9832 23.2712 29.9832 14.9916C29.9832 6.71196 23.2712 0 14.9916 0C6.71196 0 0 6.71196 0 14.9916C0 23.2712 6.71196 29.9832 14.9916 29.9832Z" fill="#323C3D"/>
<path d="M14.8569 11.206C13.893 11.206 12.9686 11.5889 12.287 12.2705C11.6055 12.952 11.2227 13.8764 11.2227 14.8403V22.4287C11.2691 22.8264 11.4357 23.2006 11.7002 23.5012C11.9648 23.8019 12.3147 24.0147 12.7034 24.1112C13.4801 24.3002 14.2763 24.3962 15.0756 24.3972C17.562 24.371 19.9392 23.3716 21.6974 21.6134C23.4556 19.8552 24.455 17.4781 24.4813 14.9917C24.4815 14.1923 24.3854 13.3958 24.1952 12.6193C24.1008 12.2296 23.8887 11.8784 23.5876 11.6134C23.2866 11.3485 22.9112 11.1827 22.5126 11.1387L14.8569 11.206Z" fill="#FF5E69"/>
<path d="M5.56942 14.8235C5.54698 15.7149 5.65458 16.6048 5.88901 17.4651C5.98713 17.8452 6.20252 18.1847 6.50456 18.4354C6.8066 18.6861 7.17993 18.8352 7.57156 18.8616H15.1431C16.107 18.8616 17.0313 18.4788 17.7129 17.7972C18.3945 17.1156 18.7775 16.1912 18.7775 15.2273V7.65581C18.7504 7.22259 18.5856 6.80936 18.3071 6.47641C18.0286 6.14345 17.651 5.90823 17.2294 5.80504C16.4407 5.62146 15.6333 5.5311 14.8235 5.53582C12.3823 5.5959 10.0582 6.59471 8.33459 8.32456C6.61101 10.0544 5.62064 12.3821 5.56942 14.8235V14.8235Z" fill="#0089B8"/>
<path d="M14.8569 11.206C13.893 11.206 12.9686 11.5889 12.287 12.2705C11.6055 12.9521 11.2227 13.8764 11.2227 14.8403V18.828H15.1767C16.1406 18.828 17.065 18.4451 17.7465 17.7635C18.4281 17.0819 18.8111 16.1575 18.8111 15.1937V11.1724L14.8569 11.206Z" fill="white"/>
</svg>
