<svg width="12" height="18" viewBox="0 0 12 18" fill="none" xmlns="http://www.w3.org/2000/svg">
<path d="M5.73415 17.4292C4.30256 17.4292 3.10237 16.9966 2.16679 16.1436C1.24672 15.2918 0.66545 14.0803 0.438477 12.5421L0.421127 12.4266L3.14592 11.824C3.14592 11.824 3.45999 13.5344 3.7246 13.8792L3.72682 13.8825C4.20992 14.5558 4.89711 14.8825 5.82826 14.8825C6.55273 14.8825 7.16131 14.6366 7.63666 14.1514C8.11201 13.6662 8.35596 13.0403 8.35596 12.2921C8.35886 12.0108 8.31674 11.7308 8.23122 11.4629C8.14689 11.212 8.01589 10.9795 7.84518 10.7777C7.64461 10.5464 7.41164 10.3455 7.15356 10.1814C6.82631 9.97128 6.4817 9.78975 6.12351 9.6388L4.56201 8.98658C2.30409 8.0288 1.15925 6.60139 1.15925 4.74361C1.15925 3.49065 1.64309 2.42843 2.59859 1.5862C3.5541 0.743982 4.74359 0.3125 6.15377 0.3125C8.05998 0.3125 9.56833 1.25435 10.6364 3.1125L10.6984 3.21991L8.50027 4.52695L8.43716 4.41583C8.07917 3.7925 7.73594 3.3825 7.42298 3.19806L7.41855 3.19546C7.09082 2.98509 6.65828 2.87843 6.13273 2.87843C5.48798 2.87843 4.94731 3.06361 4.5251 3.42732C4.10252 3.78509 3.8977 4.22213 3.8977 4.76361C3.8977 5.49732 4.46458 6.10287 5.58246 6.56398L7.19785 7.22695C8.52647 7.76621 9.51445 8.43584 10.1334 9.21806C10.7523 10.0003 11.0734 10.9829 11.0734 12.1229C11.0734 13.6458 10.5593 14.9229 9.54582 15.9181C8.5261 16.921 7.24361 17.4292 5.73415 17.4292Z" fill="black"/>
</svg>
